# Blender v3.0.1 OBJ File: ''
# www.blender.org
mtllib lamp.mtl
v -0.130569 0.689796 -0.225973
v -0.130569 0.950933 -0.225973
v -0.130569 0.950933 -0.487111
v -0.130569 0.689796 -0.487111
v 0.130569 0.950933 -0.487111
v 0.130569 0.689796 -0.487111
v 0.130569 0.950933 -0.225973
v 0.130569 0.689796 -0.225973
v -0.106402 0.689796 -0.462944
v 0.106402 0.689796 -0.462944
v 0.106402 0.705876 -0.462944
v -0.106402 0.705876 -0.462944
v 0.013939 0.950933 -0.342603
v 0.013939 0.950933 -0.370481
v 0.013939 1.891331 -0.370481
v 0.013939 1.891331 -0.342603
v -0.106402 0.689796 -0.250140
v 0.106402 0.689796 -0.250140
v 0.106402 0.705876 -0.250140
v -0.106402 0.705876 -0.250140
v -0.013939 0.950933 -0.342603
v -0.013939 0.950933 -0.370481
v -0.013939 1.891331 -0.342603
v 0.013939 1.891331 -0.342603
v -0.013939 1.891331 -0.342603
v -0.013939 1.891331 -0.370481
v 0.013939 1.891331 -0.370481
v -0.013939 1.891331 -0.370481
v -0.130569 0.689795 1.252209
v -0.130569 0.950933 1.252209
v -0.130569 0.950933 0.991071
v -0.130569 0.689795 0.991071
v 0.130569 0.950933 0.991071
v 0.130569 0.689795 0.991071
v 0.130569 0.950933 1.252209
v 0.130569 0.689795 1.252209
v -0.106402 0.689795 1.015238
v 0.106402 0.689795 1.015238
v 0.106402 0.705875 1.015238
v -0.106402 0.705875 1.015238
v 0.013939 0.950933 1.135579
v 0.013939 0.950933 1.107701
v 0.013939 1.891331 1.107701
v 0.013939 1.891331 1.135579
v -0.106402 0.689795 1.228042
v 0.106402 0.689795 1.228042
v 0.106402 0.705875 1.228042
v -0.106402 0.705875 1.228042
v -0.013939 0.950933 1.135579
v -0.013939 0.950933 1.107701
v -0.013939 1.891331 1.135579
v 0.013939 1.891331 1.135579
v -0.013939 1.891331 1.135579
v -0.013939 1.891331 1.107701
v 0.013939 1.891331 1.107701
v -0.013939 1.891331 1.107701
v -0.130569 0.689796 0.528471
v -0.130569 0.950933 0.528471
v -0.130569 0.950933 0.267334
v -0.130569 0.689796 0.267334
v 0.130569 0.950933 0.267334
v 0.130569 0.689796 0.267334
v 0.130569 0.950933 0.528471
v 0.130569 0.689796 0.528471
v -0.106402 0.689796 0.291500
v 0.106402 0.689796 0.291500
v 0.106402 0.705875 0.291500
v -0.106402 0.705875 0.291500
v 0.013939 0.950933 0.411841
v 0.013939 0.950933 0.383963
v 0.013939 1.891331 0.383964
v 0.013939 1.891331 0.411841
v -0.106402 0.689796 0.504304
v 0.106402 0.689796 0.504304
v 0.106402 0.705875 0.504304
v -0.106402 0.705875 0.504304
v -0.013939 0.950933 0.411841
v -0.013939 0.950933 0.383963
v -0.013939 1.891331 0.411841
v 0.013939 1.891331 0.411841
v -0.013939 1.891331 0.411841
v -0.013939 1.891331 0.383964
v 0.013939 1.891331 0.383964
v -0.013939 1.891331 0.383964
v -0.130569 0.689796 -0.986719
v -0.130569 0.950933 -0.986719
v -0.130569 0.950933 -1.247855
v -0.130569 0.689796 -1.247855
v 0.130569 0.950933 -1.247855
v 0.130569 0.689796 -1.247855
v 0.130569 0.950933 -0.986719
v 0.130569 0.689796 -0.986719
v -0.106402 0.689796 -1.223690
v 0.106402 0.689796 -1.223690
v 0.106402 0.705876 -1.223690
v -0.106402 0.705876 -1.223690
v 0.013939 0.950933 -1.103347
v 0.013939 0.950933 -1.131226
v 0.013939 1.891331 -1.131226
v 0.013939 1.891331 -1.103347
v -0.106402 0.689796 -1.010885
v 0.106402 0.689796 -1.010885
v 0.106402 0.705876 -1.010885
v -0.106402 0.705876 -1.010885
v -0.013939 0.950933 -1.103347
v -0.013939 0.950933 -1.131226
v -0.013939 1.891331 -1.103347
v 0.013939 1.891331 -1.103347
v -0.013939 1.891331 -1.103347
v -0.013939 1.891331 -1.131226
v 0.013939 1.891331 -1.131226
v -0.013939 1.891331 -1.131226
v -0.029268 1.819677 1.287790
v -0.029268 1.995285 1.287790
v -0.029268 1.995285 -1.287789
v -0.029268 1.819678 -1.287789
v 0.029268 1.995285 -1.287789
v 0.029268 1.819678 -1.287789
v 0.029268 1.995285 1.287790
v 0.029268 1.819677 1.287790
vt 0.375000 0.000000
vt 0.625000 0.000000
vt 0.625000 0.250000
vt 0.375000 0.250000
vt 0.625000 0.500000
vt 0.375000 0.500000
vt 0.625000 0.750000
vt 0.375000 0.750000
vt 0.625000 1.000000
vt 0.375000 1.000000
vt 0.148136 0.523136
vt 0.351864 0.523136
vt 0.351864 0.523136
vt 0.148136 0.523136
vt 0.736655 0.638345
vt 0.736655 0.611655
vt 0.736655 0.611655
vt 0.736655 0.638345
vt 0.148136 0.726864
vt 0.125000 0.750000
vt 0.125000 0.500000
vt 0.351864 0.726864
vt 0.351864 0.726864
vt 0.148136 0.726864
vt 0.763345 0.638345
vt 0.763345 0.611655
vt 0.875000 0.500000
vt 0.875000 0.750000
vt 0.763345 0.638345
vt 0.736655 0.638345
vt 0.763345 0.638345
vt 0.763345 0.611655
vt 0.736655 0.611655
vt 0.763345 0.611655
vt 0.375000 0.000000
vt 0.625000 0.000000
vt 0.625000 0.250000
vt 0.375000 0.250000
vt 0.625000 0.500000
vt 0.375000 0.500000
vt 0.625000 0.750000
vt 0.375000 0.750000
vt 0.625000 1.000000
vt 0.375000 1.000000
vt 0.148136 0.523136
vt 0.351864 0.523136
vt 0.351864 0.523136
vt 0.148136 0.523136
vt 0.736655 0.638345
vt 0.736655 0.611655
vt 0.736655 0.611655
vt 0.736655 0.638345
vt 0.148136 0.726864
vt 0.125000 0.750000
vt 0.125000 0.500000
vt 0.351864 0.726864
vt 0.351864 0.726864
vt 0.148136 0.726864
vt 0.763345 0.638345
vt 0.763345 0.611655
vt 0.875000 0.500000
vt 0.875000 0.750000
vt 0.763345 0.638345
vt 0.736655 0.638345
vt 0.763345 0.638345
vt 0.763345 0.611655
vt 0.736655 0.611655
vt 0.763345 0.611655
vt 0.375000 0.000000
vt 0.625000 0.000000
vt 0.625000 0.250000
vt 0.375000 0.250000
vt 0.625000 0.500000
vt 0.375000 0.500000
vt 0.625000 0.750000
vt 0.375000 0.750000
vt 0.625000 1.000000
vt 0.375000 1.000000
vt 0.148136 0.523136
vt 0.351864 0.523136
vt 0.351864 0.523136
vt 0.148136 0.523136
vt 0.736655 0.638345
vt 0.736655 0.611655
vt 0.736655 0.611655
vt 0.736655 0.638345
vt 0.148136 0.726864
vt 0.125000 0.750000
vt 0.125000 0.500000
vt 0.351864 0.726864
vt 0.351864 0.726864
vt 0.148136 0.726864
vt 0.763345 0.638345
vt 0.763345 0.611655
vt 0.875000 0.500000
vt 0.875000 0.750000
vt 0.763345 0.638345
vt 0.736655 0.638345
vt 0.763345 0.638345
vt 0.763345 0.611655
vt 0.736655 0.611655
vt 0.763345 0.611655
vt 0.375000 0.000000
vt 0.625000 0.000000
vt 0.625000 0.250000
vt 0.375000 0.250000
vt 0.625000 0.500000
vt 0.375000 0.500000
vt 0.625000 0.750000
vt 0.375000 0.750000
vt 0.625000 1.000000
vt 0.375000 1.000000
vt 0.148136 0.523136
vt 0.351864 0.523136
vt 0.351864 0.523136
vt 0.148136 0.523136
vt 0.736655 0.638345
vt 0.736655 0.611655
vt 0.736655 0.611655
vt 0.736655 0.638345
vt 0.148136 0.726864
vt 0.125000 0.750000
vt 0.125000 0.500000
vt 0.351864 0.726864
vt 0.351864 0.726864
vt 0.148136 0.726864
vt 0.763345 0.638345
vt 0.763345 0.611655
vt 0.875000 0.500000
vt 0.875000 0.750000
vt 0.763345 0.638345
vt 0.736655 0.638345
vt 0.763345 0.638345
vt 0.763345 0.611655
vt 0.736655 0.611655
vt 0.763345 0.611655
vt 0.375000 0.000000
vt 0.625000 0.000000
vt 0.625000 0.250000
vt 0.375000 0.250000
vt 0.625000 0.500000
vt 0.375000 0.500000
vt 0.625000 0.750000
vt 0.375000 0.750000
vt 0.625000 1.000000
vt 0.375000 1.000000
vt 0.125000 0.500000
vt 0.125000 0.750000
vt 0.875000 0.500000
vt 0.875000 0.750000
vn -1.0000 -0.0000 0.0000
vn 0.0000 0.0000 -1.0000
vn 1.0000 0.0000 0.0000
vn 0.0000 -0.0000 1.0000
vn 0.0000 -1.0000 0.0000
vn 0.0000 1.0000 -0.0000
vn 0.0000 0.0000 0.0000
usemtl Material.001
s 1
f 1/1/1 2/2/1 3/3/1 4/4/1
f 4/4/2 3/3/2 5/5/2 6/6/2
f 6/6/3 5/5/3 7/7/3 8/8/3
f 8/8/4 7/7/4 2/9/4 1/10/4
f 9/11/4 10/12/4 11/13/4 12/14/4
f 13/15/3 14/16/3 15/17/3 16/18/3
f 9/11/5 17/19/5 1/20/5 4/21/5
f 10/12/5 9/11/5 4/21/5 6/6/5
f 18/22/5 10/12/5 6/6/5 8/8/5
f 17/19/5 18/22/5 8/8/5 1/20/5
f 10/12/1 18/22/1 19/23/1 11/13/1
f 17/19/3 9/11/3 12/14/3 20/24/3
f 18/22/2 17/19/2 20/24/2 19/23/2
f 21/25/6 22/26/6 3/27/6 2/28/6
f 22/26/6 14/16/6 5/5/6 3/27/6
f 14/16/6 13/15/6 7/7/6 5/5/6
f 13/15/6 21/25/6 2/28/6 7/7/6
f 23/29/7 16/18/7 24/30/7 25/31/7
f 22/26/1 21/25/1 23/29/1 26/32/1
f 21/25/4 13/15/4 16/18/7 23/29/7
f 14/16/2 22/26/2 26/32/2 15/17/2
f 27/33/6 28/34/6 25/31/6 24/30/6
f 15/17/7 26/32/7 28/34/7 27/33/7
f 16/18/7 15/17/7 27/33/7 24/30/7
f 26/32/7 23/29/7 25/31/7 28/34/7
f 29/35/1 30/36/1 31/37/1 32/38/1
f 32/38/2 31/37/2 33/39/2 34/40/2
f 34/40/3 33/39/3 35/41/3 36/42/3
f 36/42/4 35/41/4 30/43/4 29/44/4
f 37/45/4 38/46/4 39/47/4 40/48/4
f 41/49/3 42/50/3 43/51/3 44/52/3
f 37/45/5 45/53/5 29/54/5 32/55/5
f 38/46/5 37/45/5 32/55/5 34/40/5
f 46/56/5 38/46/5 34/40/5 36/42/5
f 45/53/5 46/56/5 36/42/5 29/54/5
f 38/46/1 46/56/1 47/57/1 39/47/1
f 45/53/3 37/45/3 40/48/3 48/58/3
f 46/56/2 45/53/2 48/58/2 47/57/2
f 49/59/6 50/60/6 31/61/6 30/62/6
f 50/60/6 42/50/6 33/39/6 31/61/6
f 42/50/6 41/49/6 35/41/6 33/39/6
f 41/49/6 49/59/6 30/62/6 35/41/6
f 51/63/7 44/52/7 52/64/7 53/65/7
f 50/60/1 49/59/1 51/63/1 54/66/1
f 49/59/4 41/49/4 44/52/7 51/63/7
f 42/50/2 50/60/2 54/66/2 43/51/2
f 55/67/6 56/68/6 53/65/6 52/64/6
f 43/51/7 54/66/7 56/68/7 55/67/7
f 44/52/7 43/51/7 55/67/7 52/64/7
f 54/66/7 51/63/7 53/65/7 56/68/7
f 57/69/1 58/70/1 59/71/1 60/72/1
f 60/72/2 59/71/2 61/73/2 62/74/2
f 62/74/3 61/73/3 63/75/3 64/76/3
f 64/76/4 63/75/4 58/77/4 57/78/4
f 65/79/4 66/80/4 67/81/4 68/82/4
f 69/83/3 70/84/3 71/85/3 72/86/3
f 65/79/5 73/87/5 57/88/5 60/89/5
f 66/80/5 65/79/5 60/89/5 62/74/5
f 74/90/5 66/80/5 62/74/5 64/76/5
f 73/87/5 74/90/5 64/76/5 57/88/5
f 66/80/1 74/90/1 75/91/1 67/81/1
f 73/87/3 65/79/3 68/82/3 76/92/3
f 74/90/2 73/87/2 76/92/2 75/91/2
f 77/93/6 78/94/6 59/95/6 58/96/6
f 78/94/6 70/84/6 61/73/6 59/95/6
f 70/84/6 69/83/6 63/75/6 61/73/6
f 69/83/6 77/93/6 58/96/6 63/75/6
f 79/97/7 72/86/7 80/98/7 81/99/7
f 78/94/1 77/93/1 79/97/1 82/100/1
f 77/93/4 69/83/4 72/86/7 79/97/7
f 70/84/2 78/94/2 82/100/2 71/85/2
f 83/101/6 84/102/6 81/99/6 80/98/6
f 71/85/7 82/100/7 84/102/7 83/101/7
f 72/86/7 71/85/7 83/101/7 80/98/7
f 82/100/7 79/97/7 81/99/7 84/102/7
f 85/103/1 86/104/1 87/105/1 88/106/1
f 88/106/2 87/105/2 89/107/2 90/108/2
f 90/108/3 89/107/3 91/109/3 92/110/3
f 92/110/4 91/109/4 86/111/4 85/112/4
f 93/113/4 94/114/4 95/115/4 96/116/4
f 97/117/3 98/118/3 99/119/3 100/120/3
f 93/113/5 101/121/5 85/122/5 88/123/5
f 94/114/5 93/113/5 88/123/5 90/108/5
f 102/124/5 94/114/5 90/108/5 92/110/5
f 101/121/5 102/124/5 92/110/5 85/122/5
f 94/114/1 102/124/1 103/125/1 95/115/1
f 101/121/3 93/113/3 96/116/3 104/126/3
f 102/124/2 101/121/2 104/126/2 103/125/2
f 105/127/6 106/128/6 87/129/6 86/130/6
f 106/128/6 98/118/6 89/107/6 87/129/6
f 98/118/6 97/117/6 91/109/6 89/107/6
f 97/117/6 105/127/6 86/130/6 91/109/6
f 107/131/7 100/120/7 108/132/7 109/133/7
f 106/128/1 105/127/1 107/131/1 110/134/1
f 105/127/4 97/117/4 100/120/7 107/131/7
f 98/118/2 106/128/2 110/134/2 99/119/2
f 111/135/6 112/136/6 109/133/6 108/132/6
f 99/119/7 110/134/7 112/136/7 111/135/7
f 100/120/7 99/119/7 111/135/7 108/132/7
f 110/134/7 107/131/7 109/133/7 112/136/7
f 113/137/1 114/138/1 115/139/1 116/140/1
f 116/140/2 115/139/2 117/141/2 118/142/2
f 118/142/3 117/141/3 119/143/3 120/144/3
f 120/144/4 119/143/4 114/145/4 113/146/4
f 116/147/5 118/142/5 120/144/5 113/148/5
f 117/141/6 115/149/6 114/150/6 119/143/6
usemtl light
f 12/14/5 11/13/5 19/23/5 20/24/5
f 40/48/5 39/47/5 47/57/5 48/58/5
f 68/82/5 67/81/5 75/91/5 76/92/5
f 96/116/5 95/115/5 103/125/5 104/126/5
