# Blender v3.0.1 OBJ File: ''
# www.blender.org
mtllib neon.mtl
v 1.901007 1.707413 -2.376391
v 40.643135 1.707413 -2.376391
v 1.901007 1.707413 -2.714364
v 40.643135 1.707413 -2.714364
v 1.901007 1.707413 -1.223242
v 40.643135 1.707413 -1.223242
v 1.901007 1.707413 -1.561215
v 40.643135 1.707413 -1.561215
vt 0.000000 0.000000
vt 1.000000 0.000000
vt 1.000000 1.000000
vt 0.000000 1.000000
vt 0.000000 0.000000
vt 1.000000 0.000000
vt 1.000000 1.000000
vt 0.000000 1.000000
vn 0.0000 1.0000 0.0000
usemtl None
s off
f 1/1/1 2/2/1 4/3/1 3/4/1
f 5/5/1 6/6/1 8/7/1 7/8/1
