# Blender v3.0.1 OBJ File: 'Delorean.blend'
# www.blender.org
mtllib rebar.mtl
v 19.891897 1.759058 5.972071
v 19.891897 2.080448 5.972071
v 19.891897 1.759058 5.650681
v 19.891897 2.080448 5.650681
v 24.323503 1.759058 5.972071
v 24.323503 2.080448 5.972071
v 24.323503 1.759058 5.650681
v 24.323503 2.080448 5.650681
v 19.891897 1.759058 -1.684251
v 19.891897 2.080448 -1.684251
v 19.891897 1.759058 -2.005641
v 19.891897 2.080448 -2.005641
v 24.323503 1.759058 -1.684251
v 24.323503 2.080448 -1.684251
v 24.323503 1.759058 -2.005641
v 24.323503 2.080448 -2.005641
v 19.891897 1.759058 0.196263
v 19.891897 2.080448 0.196263
v 19.891897 1.759058 -0.125126
v 19.891897 2.080448 -0.125126
v 24.323503 1.759058 0.196263
v 24.323503 2.080448 0.196263
v 24.323503 1.759058 -0.125126
v 24.323503 2.080448 -0.125126
v 19.891897 1.759058 3.402267
v 19.891897 2.080448 3.402267
v 19.891897 1.759058 3.080877
v 19.891897 2.080448 3.080877
v 24.323503 1.759058 3.402267
v 24.323503 2.080448 3.402267
v 24.323503 1.759058 3.080877
v 24.323503 2.080448 3.080877
v 20.565435 1.759058 3.605119
v 20.565435 2.080448 3.605119
v 20.269236 1.759058 3.480393
v 20.269236 2.080448 3.480393
v 22.285259 1.759058 -0.479161
v 22.285259 2.080448 -0.479161
v 21.989059 1.759058 -0.603887
v 21.989059 2.080448 -0.603887
vt 0.375000 0.000000
vt 0.625000 0.000000
vt 0.625000 0.250000
vt 0.375000 0.250000
vt 0.625000 0.500000
vt 0.375000 0.500000
vt 0.625000 0.750000
vt 0.375000 0.750000
vt 0.625000 1.000000
vt 0.375000 1.000000
vt 0.125000 0.500000
vt 0.125000 0.750000
vt 0.875000 0.500000
vt 0.875000 0.750000
vt 0.375000 0.000000
vt 0.625000 0.000000
vt 0.625000 0.250000
vt 0.375000 0.250000
vt 0.625000 0.500000
vt 0.375000 0.500000
vt 0.625000 0.750000
vt 0.375000 0.750000
vt 0.625000 1.000000
vt 0.375000 1.000000
vt 0.125000 0.500000
vt 0.125000 0.750000
vt 0.875000 0.500000
vt 0.875000 0.750000
vt 0.375000 0.000000
vt 0.625000 0.000000
vt 0.625000 0.250000
vt 0.375000 0.250000
vt 0.625000 0.500000
vt 0.375000 0.500000
vt 0.625000 0.750000
vt 0.375000 0.750000
vt 0.625000 1.000000
vt 0.375000 1.000000
vt 0.125000 0.500000
vt 0.125000 0.750000
vt 0.875000 0.500000
vt 0.875000 0.750000
vt 0.375000 0.000000
vt 0.625000 0.000000
vt 0.625000 0.250000
vt 0.375000 0.250000
vt 0.625000 0.500000
vt 0.375000 0.500000
vt 0.625000 0.750000
vt 0.375000 0.750000
vt 0.625000 1.000000
vt 0.375000 1.000000
vt 0.125000 0.500000
vt 0.125000 0.750000
vt 0.875000 0.500000
vt 0.875000 0.750000
vt 0.375000 0.000000
vt 0.625000 0.000000
vt 0.625000 0.250000
vt 0.375000 0.250000
vt 0.625000 0.500000
vt 0.375000 0.500000
vt 0.625000 0.750000
vt 0.375000 0.750000
vt 0.625000 1.000000
vt 0.375000 1.000000
vt 0.125000 0.500000
vt 0.125000 0.750000
vt 0.875000 0.500000
vt 0.875000 0.750000
vn -1.0000 0.0000 0.0000
vn 0.0000 0.0000 -1.0000
vn 1.0000 0.0000 0.0000
vn 0.0000 0.0000 1.0000
vn 0.0000 -1.0000 0.0000
vn 0.0000 1.0000 0.0000
vn -0.3881 0.0000 0.9216
vn -0.9216 0.0000 -0.3881
vn 0.3881 0.0000 -0.9216
vn 0.9216 0.0000 0.3881
usemtl None
s off
f 1/1/1 2/2/1 4/3/1 3/4/1
f 3/4/2 4/3/2 8/5/2 7/6/2
f 7/6/3 8/5/3 6/7/3 5/8/3
f 5/8/4 6/7/4 2/9/4 1/10/4
f 3/11/5 7/6/5 5/8/5 1/12/5
f 8/5/6 4/13/6 2/14/6 6/7/6
f 9/15/1 10/16/1 12/17/1 11/18/1
f 11/18/2 12/17/2 16/19/2 15/20/2
f 15/20/3 16/19/3 14/21/3 13/22/3
f 13/22/4 14/21/4 10/23/4 9/24/4
f 11/25/5 15/20/5 13/22/5 9/26/5
f 16/19/6 12/27/6 10/28/6 14/21/6
f 17/29/1 18/30/1 20/31/1 19/32/1
f 19/32/2 20/31/2 24/33/2 23/34/2
f 23/34/3 24/33/3 22/35/3 21/36/3
f 21/36/4 22/35/4 18/37/4 17/38/4
f 19/39/5 23/34/5 21/36/5 17/40/5
f 24/33/6 20/41/6 18/42/6 22/35/6
f 25/43/1 26/44/1 28/45/1 27/46/1
f 27/46/2 28/45/2 32/47/2 31/48/2
f 31/48/3 32/47/3 30/49/3 29/50/3
f 29/50/4 30/49/4 26/51/4 25/52/4
f 27/53/5 31/48/5 29/50/5 25/54/5
f 32/47/6 28/55/6 26/56/6 30/49/6
f 33/57/7 34/58/7 36/59/7 35/60/7
f 35/60/8 36/59/8 40/61/8 39/62/8
f 39/62/9 40/61/9 38/63/9 37/64/9
f 37/64/10 38/63/10 34/65/10 33/66/10
f 35/67/5 39/62/5 37/64/5 33/68/5
f 40/61/6 36/69/6 34/70/6 38/63/6
