# Blender v3.0.1 OBJ File: 'Delorean.blend'
# www.blender.org
mtllib streetlight_lamp.mtl
v 31.721035 6.868237 0.738340
v 31.693321 6.863708 1.206455
v 31.852291 6.889686 0.746319
v 31.824577 6.885157 1.214434
v 31.581707 6.845468 3.091724
v 31.553993 6.840939 3.559839
v 31.712961 6.866917 3.099703
v 31.685247 6.862388 3.567818
v -2.625853 5.523114 -1.105152
v -2.653933 5.523115 -0.637036
v -2.492853 5.523114 -1.097173
v -2.520937 5.523115 -0.629058
v -2.767027 5.523114 1.248233
v -2.795115 5.523114 1.716348
v -2.634035 5.523115 1.256211
v -2.662111 5.523114 1.724326
v 3.920574 5.403467 -0.900618
v 4.139870 5.440204 -0.487724
v 4.036274 5.422850 -0.963790
v 4.255562 5.459585 -0.550895
v 5.023037 5.588156 1.175150
v 5.242329 5.624892 1.588045
v 5.138733 5.607537 1.111979
v 5.358027 5.644274 1.524873
v 18.433346 5.649280 -0.235566
v 18.405264 5.574855 0.226595
v 18.566341 5.648012 -0.227690
v 18.538261 5.573586 0.234471
v 18.292170 5.275116 2.087883
v 18.264088 5.200691 2.550044
v 18.425165 5.273848 2.095760
v 18.397083 5.199423 2.557921
v 39.928108 6.883108 1.113307
v 40.025787 6.878932 1.571959
v 40.057014 6.902881 1.086034
v 40.154694 6.898705 1.544687
v 40.419163 6.862118 3.419120
v 40.516838 6.857944 3.877773
v 40.548065 6.881891 3.391848
v 40.645744 6.877716 3.850500
vt 0.132524 0.551675
vt 0.367476 0.551675
vt 0.367476 0.709602
vt 0.132524 0.709602
vt 0.132524 0.551675
vt 0.367476 0.551675
vt 0.367476 0.709602
vt 0.132524 0.709602
vt 0.132524 0.551675
vt 0.367476 0.551675
vt 0.367476 0.709602
vt 0.132524 0.709602
vt 0.132524 0.551675
vt 0.367476 0.551675
vt 0.367476 0.709602
vt 0.132524 0.709602
vt 0.132524 0.551675
vt 0.367476 0.551675
vt 0.367476 0.709602
vt 0.132524 0.709602
vt 0.132524 0.551675
vt 0.367476 0.551675
vt 0.367476 0.709602
vt 0.132524 0.709602
vt 0.132524 0.551675
vt 0.367476 0.551675
vt 0.367476 0.709602
vt 0.132524 0.709602
vt 0.132524 0.551675
vt 0.367476 0.551675
vt 0.367476 0.709602
vt 0.132524 0.709602
vt 0.132524 0.551675
vt 0.367476 0.551675
vt 0.367476 0.709602
vt 0.132524 0.709602
vt 0.132524 0.551675
vt 0.367476 0.551675
vt 0.367476 0.709602
vt 0.132524 0.709602
vn 0.1613 -0.9869 -0.0000
vn -0.0000 -1.0000 0.0000
vn 0.1652 -0.9863 0.0000
vn 0.0000 -0.9873 -0.1590
vn 0.1433 -0.9889 -0.0395
usemtl None
s off
f 3/1/1 4/2/1 2/3/1 1/4/1
f 7/5/1 8/6/1 6/7/1 5/8/1
f 11/9/2 12/10/2 10/11/2 9/12/2
f 15/13/2 16/14/2 14/15/2 13/16/2
f 19/17/3 20/18/3 18/19/3 17/20/3
f 23/21/3 24/22/3 22/23/3 21/24/3
f 27/25/4 28/26/4 26/27/4 25/28/4
f 31/29/4 32/30/4 30/31/4 29/32/4
f 35/33/5 36/34/5 34/35/5 33/36/5
f 39/37/5 40/38/5 38/39/5 37/40/5
